<svg width="223" height="55" viewBox="0 0 223 55" fill="none" xmlns="http://www.w3.org/2000/svg">
<g clip-path="url(#clip0)">
<path d="M31.3382 7.07949L10.8336 19.1874L0.505859 12.7769L21.2715 0.705078L31.3382 7.07949Z" fill="white"/>
<path d="M10.6546 19.4798V54.4822L0 49.5917L0.332123 13.0909L10.6546 19.4798Z" fill="white"/>
<path d="M31.5941 7.242V28.528L20.7246 24.3704L20.7424 13.6543L31.5941 7.242Z" fill="white"/>
<path d="M31.2479 28.685L11.0098 39.3379V29.6887L20.6467 24.6303L31.2479 28.685Z" fill="white"/>
<path d="M66.5811 41.8868V9.84327H79.7239C81.0543 9.82968 82.3696 10.1313 83.5655 10.7242C84.7149 11.2955 85.7413 12.0932 86.5848 13.0711C87.4258 14.0448 88.094 15.1596 88.5598 16.3657C89.0263 17.5496 89.2673 18.8128 89.2702 20.0882C89.273 21.3969 89.0475 22.6957 88.6042 23.9244C88.1769 25.1296 87.5378 26.246 86.718 27.219C85.9054 28.181 84.9083 28.9642 83.7875 29.5207C82.6045 30.1025 81.3044 30.3961 79.9903 30.3782H70.5772V41.8868H66.5811ZM70.5772 26.7677H79.7683C80.5459 26.7793 81.3151 26.6016 82.0114 26.2496C82.6783 25.9015 83.2617 25.4084 83.72 24.8054C84.2076 24.16 84.583 23.4347 84.83 22.6607C85.0992 21.8308 85.2341 20.962 85.2297 20.0882C85.242 18.3507 84.6351 16.6673 83.5211 15.3494C83.016 14.7593 82.3954 14.2828 81.6989 13.9503C81.0111 13.6216 80.2601 13.452 79.5001 13.4538H70.5772V26.7677Z" fill="white"/>
<path d="M94.2432 41.8869V9.84332H98.2393V41.8869H94.2432Z" fill="white"/>
<path d="M105.787 41.8869V9.88845H109.783V27.5801L126.034 9.84332H130.341L117.687 23.9696L131.052 41.8869H126.7L115.245 26.3164L109.783 32.0933V41.8869H105.787Z" fill="white"/>
<path d="M145.741 42.1072C143.645 42.1391 141.57 41.6691 139.685 40.7352C137.904 39.8411 136.311 38.6024 134.996 37.0885C133.684 35.5524 132.66 33.7839 131.977 31.8713C131.273 29.9541 130.912 27.9242 130.911 25.8778C130.902 23.7769 131.288 21.6935 132.048 19.7399C132.773 17.8295 133.832 16.0681 135.174 14.5407C136.503 13.041 138.108 11.8205 139.898 10.9482C141.751 10.0526 143.779 9.59583 145.83 9.61228C147.927 9.58069 150 10.0703 151.869 11.0384C153.646 11.9547 155.227 13.2185 156.522 14.7573C159.14 17.8677 160.587 21.8209 160.607 25.9139C160.616 28.0148 160.231 30.0982 159.47 32.0518C158.753 33.951 157.699 35.7008 156.362 37.2149C155.037 38.706 153.438 39.9201 151.656 40.7893C149.809 41.6809 147.786 42.1316 145.741 42.1072ZM134.961 25.8597C134.96 27.4637 135.224 29.0564 135.742 30.5715C136.229 32.0441 136.975 33.4144 137.944 34.6153C138.878 35.7781 140.039 36.731 141.355 37.4135C142.731 38.117 144.254 38.4759 145.795 38.4605C147.372 38.4906 148.931 38.1116 150.324 37.3593C151.636 36.6413 152.79 35.6584 153.716 34.4709C154.653 33.2597 155.374 31.8911 155.847 30.4271C156.836 27.4188 156.817 24.1623 155.794 21.166C155.305 19.7017 154.552 18.3427 153.574 17.1583C152.626 16.015 151.468 15.0706 150.164 14.3782C148.779 13.6833 147.255 13.3249 145.711 13.3312C144.166 13.3374 142.645 13.7082 141.266 14.4143C139.951 15.1133 138.795 16.085 137.873 17.2666C136.935 18.4663 136.208 19.8223 135.724 21.2743C135.217 22.748 134.959 24.2984 134.961 25.8597Z" fill="white"/>
<path d="M166.166 41.8905V9.84691H179.664C180.994 9.83093 182.308 10.134 183.5 10.7315C184.65 11.3023 185.677 12.1001 186.52 13.0784C187.365 14.0446 188.033 15.1575 188.491 16.3639C188.96 17.5458 189.201 18.8084 189.202 20.0828C189.201 21.1769 189.046 22.2653 188.74 23.3142C188.456 24.3229 188.006 25.2753 187.408 26.1305C186.84 26.9722 186.131 27.7056 185.312 28.2968C184.491 28.9021 183.563 29.341 182.579 29.5894L190.216 41.8652H185.687L178.494 30.3476H170.146V41.8652H166.168L166.166 41.8905ZM170.162 26.7623H179.717C180.496 26.776 181.266 26.5897 181.955 26.2207C182.619 25.8616 183.2 25.3631 183.66 24.7585C184.155 24.1178 184.528 23.3894 184.761 22.6102C185.016 21.7926 185.148 20.9405 185.152 20.0828C185.155 19.2125 184.998 18.3493 184.69 17.5374C184.386 16.7668 183.966 16.0483 183.447 15.4072C182.948 14.8033 182.331 14.3115 181.636 13.9629C180.951 13.6181 180.197 13.4389 179.433 13.4394H170.162V26.7623Z" fill="white"/>
<path d="M208.135 42.1072C206.038 42.1391 203.964 41.6691 202.079 40.7352C200.297 39.8411 198.705 38.6024 197.39 37.0885C196.077 35.5524 195.054 33.7839 194.37 31.8713C193.666 29.9541 193.305 27.9242 193.305 25.8778C193.295 23.7769 193.681 21.6935 194.442 19.7399C195.167 17.8295 196.226 16.0681 197.567 14.5407C198.896 13.041 200.501 11.8205 202.292 10.9482C204.144 10.0526 206.172 9.59583 208.224 9.61228C210.321 9.58069 212.394 10.0703 214.262 11.0384C216.039 11.9547 217.62 13.2185 218.916 14.7573C221.533 17.8677 222.981 21.8209 223.001 25.9139C223.01 28.0148 222.624 30.0982 221.864 32.0518C221.146 33.951 220.093 35.7008 218.756 37.2149C217.43 38.706 215.832 39.9201 214.049 40.7893C212.202 41.679 210.179 42.1297 208.135 42.1072ZM197.336 25.8597C197.336 27.4637 197.6 29.0564 198.118 30.5715C198.605 32.0441 199.351 33.4144 200.32 34.6153C201.254 35.7781 202.415 36.731 203.73 37.4135C205.107 38.117 206.629 38.4759 208.17 38.4605C209.748 38.4906 211.306 38.1116 212.699 37.3593C214.012 36.6413 215.166 35.6584 216.092 34.4709C217.029 33.2597 217.75 31.8911 218.223 30.4271C219.212 27.4188 219.193 24.1623 218.17 21.166C217.681 19.7017 216.928 18.3427 215.95 17.1583C215.002 16.015 213.843 15.0706 212.54 14.3782C211.155 13.6833 209.63 13.3249 208.086 13.3312C206.542 13.3374 205.021 13.7082 203.641 14.4143C202.327 15.1133 201.171 16.085 200.249 17.2666C199.31 18.4663 198.583 19.8223 198.1 21.2743C197.593 22.748 197.335 24.2984 197.336 25.8597Z" fill="white"/>
<path d="M48.2362 2.39117H46.2471V50.0684H48.2362V2.39117Z" fill="white"/>
</g>
<defs>
<clipPath id="clip0">
<rect width="223" height="53.7772" fill="white" transform="translate(0 0.705078)"/>
</clipPath>
</defs>
</svg>
