<svg width="233" height="54" viewBox="0 0 233 54" fill="none" xmlns="http://www.w3.org/2000/svg">
<g clip-path="url(#clip0)">
<path d="M21.5596 12.9709L33.0017 19.3937V6.53015L21.5596 12.9709Z" fill="#0A4E62"/>
<path d="M33.002 6.53017L11.4054 18.7318L0.349609 12.1658L22.2221 0L33.002 6.53017Z" fill="#11698E"/>
<path d="M11.4053 53.78L0 48.7705L0.349518 12.1658L11.4053 18.7138V53.78Z" fill="#16C799"/>
<path d="M33.0017 27.9098L21.5596 23.7233L21.578 12.9888L33.0017 19.4116V27.9098Z" fill="#11698E"/>
<path d="M33.0018 27.9099L11.4053 38.7875V28.8223L21.5597 23.7234L33.0018 27.9099Z" fill="#11698E"/>
<path d="M69.1494 41.0238V9.26746H82.7622C84.1971 9.26746 85.5216 9.55371 86.7357 10.1441C87.9498 10.7166 88.98 11.5038 89.863 12.4699C90.746 13.436 91.4266 14.5274 91.9049 15.7261C92.4016 16.9426 92.6407 18.1592 92.6407 19.4116C92.6407 20.7176 92.42 21.9879 91.9417 23.2045C91.4818 24.421 90.838 25.5124 89.9918 26.4606C89.1455 27.4088 88.1338 28.1781 86.9565 28.7327C85.7791 29.3052 84.473 29.5915 83.0198 29.5915H73.2701V41.0059H69.1494V41.0238ZM73.2884 26.0312H82.8174C83.682 26.0312 84.4546 25.8523 85.1353 25.5124C85.8343 25.1725 86.423 24.6894 86.9013 24.0811C87.398 23.4728 87.7843 22.7572 88.0418 21.9521C88.2993 21.147 88.4465 20.3061 88.4465 19.4116C88.4465 18.4813 88.281 17.6225 87.9682 16.8174C87.6555 16.0123 87.214 15.3146 86.6805 14.7063C86.147 14.1159 85.5216 13.6507 84.8042 13.3108C84.0867 12.9888 83.3325 12.8099 82.5231 12.8099H73.2884V26.0312V26.0312Z" fill="#0A4E62"/>
<path d="M97.792 41.0238V9.26746H101.931V41.0238H97.792Z" fill="#0A4E62"/>
<path d="M109.749 41.0238V9.30324H113.888V26.8363L130.72 9.26746H135.172L122.074 23.2581L135.908 41.0059H131.401L119.554 25.5839L113.906 31.309V41.0059H109.749V41.0238Z" fill="#0A4E62"/>
<path d="M151.139 41.2385C148.84 41.2385 146.743 40.7912 144.866 39.8788C142.99 38.9663 141.371 37.7677 140.01 36.2648C138.667 34.762 137.618 33.0445 136.883 31.0944C136.147 29.1621 135.779 27.1763 135.779 25.1546C135.779 23.0435 136.165 21.0039 136.956 19.0717C137.729 17.1395 138.814 15.422 140.194 13.9191C141.573 12.4342 143.211 11.2355 145.087 10.3588C146.963 9.48218 149.024 9.03491 151.231 9.03491C153.531 9.03491 155.609 9.50008 157.486 10.4483C159.362 11.3786 160.963 12.6131 162.305 14.1338C163.648 15.6545 164.697 17.3721 165.433 19.3043C166.169 21.2365 166.536 23.1866 166.536 25.1904C166.536 27.3015 166.15 29.3411 165.359 31.2733C164.586 33.2055 163.501 34.923 162.14 36.3901C160.779 37.8571 159.16 39.0379 157.265 39.9325C155.407 40.8091 153.347 41.2385 151.139 41.2385ZM139.973 25.1367C139.973 26.7469 140.249 28.3034 140.782 29.8062C141.316 31.3091 142.07 32.6509 143.064 33.8138C144.038 34.9767 145.234 35.907 146.595 36.5869C147.975 37.2667 149.502 37.6245 151.194 37.6245C152.942 37.6245 154.506 37.2667 155.885 36.5332C157.265 35.7997 158.442 34.8514 159.399 33.6706C160.355 32.4899 161.091 31.1659 161.606 29.6631C162.121 28.1782 162.361 26.6753 162.361 25.1546C162.361 23.5444 162.085 21.9879 161.551 20.4851C161.018 18.9822 160.245 17.6583 159.252 16.5133C158.258 15.3683 157.081 14.4558 155.72 13.7581C154.358 13.0783 152.85 12.7204 151.194 12.7204C149.447 12.7204 147.883 13.0782 146.504 13.7939C145.124 14.5095 143.947 15.4398 142.99 16.6206C142.033 17.8014 141.279 19.1075 140.764 20.5924C140.231 22.0774 139.973 23.5981 139.973 25.1367Z" fill="#0A4E62"/>
<path d="M172.294 41.0238V9.26746H186.275C187.71 9.26746 189.035 9.55371 190.249 10.1441C191.463 10.7166 192.493 11.5038 193.376 12.4699C194.259 13.436 194.94 14.5274 195.418 15.7261C195.915 16.9426 196.154 18.1592 196.154 19.4116C196.154 20.5208 195.988 21.5764 195.675 22.6141C195.363 23.6517 194.903 24.5821 194.296 25.405C193.707 26.2459 192.971 26.9615 192.125 27.5519C191.279 28.1423 190.341 28.5896 189.292 28.8401L197.202 41.0059H192.511L185.061 29.5915H176.415V41.0059H172.294V41.0238ZM176.433 26.0312H186.33C187.195 26.0312 187.968 25.8523 188.648 25.4945C189.329 25.1367 189.936 24.6536 190.414 24.0453C190.911 23.437 191.297 22.7214 191.555 21.9163C191.812 21.1112 191.959 20.2703 191.959 19.4116C191.959 18.517 191.794 17.6762 191.481 16.889C191.15 16.1018 190.727 15.404 190.193 14.7778C189.66 14.1696 189.035 13.6865 188.317 13.3466C187.6 13.0067 186.845 12.8277 186.036 12.8277H176.433V26.0312Z" fill="#0A4E62"/>
<path d="M215.764 41.2385C213.464 41.2385 211.367 40.7912 209.491 39.8788C207.614 38.9663 205.996 37.7677 204.634 36.2648C203.291 34.762 202.243 33.0445 201.507 31.0944C200.771 29.1621 200.403 27.1763 200.403 25.1546C200.403 23.0435 200.79 21.0039 201.581 19.0717C202.353 17.1395 203.439 15.422 204.818 13.9191C206.198 12.4342 207.835 11.2355 209.712 10.3588C211.588 9.48218 213.648 9.03491 215.856 9.03491C218.155 9.03491 220.234 9.50008 222.11 10.4483C223.987 11.3786 225.587 12.6131 226.93 14.1338C228.273 15.6545 229.321 17.3721 230.057 19.3043C230.793 21.2365 231.161 23.1866 231.161 25.1904C231.161 27.3015 230.775 29.3411 229.984 31.2733C229.211 33.2055 228.126 34.923 226.764 36.3901C225.403 37.8571 223.784 39.0379 221.889 39.9325C220.013 40.8091 217.971 41.2385 215.764 41.2385ZM204.579 25.1367C204.579 26.7469 204.855 28.3034 205.389 29.8062C205.922 31.3091 206.676 32.6509 207.67 33.8138C208.645 34.9767 209.84 35.907 211.202 36.5869C212.581 37.2667 214.108 37.6245 215.801 37.6245C217.548 37.6245 219.112 37.2667 220.491 36.5332C221.871 35.7997 223.048 34.8514 224.005 33.6706C224.962 32.4899 225.697 31.1659 226.212 29.6631C226.728 28.1782 226.967 26.6753 226.967 25.1546C226.967 23.5444 226.691 21.9879 226.157 20.4851C225.624 18.9822 224.851 17.6583 223.858 16.5133C222.864 15.3683 221.687 14.4558 220.326 13.7581C218.965 13.0783 217.456 12.7204 215.801 12.7204C214.053 12.7204 212.489 13.0782 211.11 13.7939C209.73 14.5095 208.553 15.4398 207.596 16.6206C206.639 17.8014 205.885 19.1075 205.37 20.5924C204.837 22.0774 204.579 23.5981 204.579 25.1367Z" fill="#0A4E62"/>
<path d="M50.1468 1.87854H48.0864V49.1284H50.1468V1.87854Z" fill="#16C799"/>
</g>
<defs>
<clipPath id="clip0">
<rect width="233" height="53.78" fill="white"/>
</clipPath>
</defs>
</svg>
